<svg width="1214" height="1320" viewBox="0 0 1214 1320" fill="none" xmlns="http://www.w3.org/2000/svg">
<path d="M1161.11 810.989C1195.85 845.73 1213.22 895.67 1213.22 960.81C1213.22 1003.15 1206.17 1046.58 1192.05 1091.09C1177.94 1135.6 1160.57 1173.06 1139.94 1203.45C1114.97 1238.2 1094.89 1264.79 1079.69 1283.25C1064.49 1301.71 1054.72 1312.02 1050.38 1314.19C1046.03 1317.45 1040.6 1318.53 1034.09 1317.45C974.38 1307.68 944.524 1218.65 944.524 1050.38V929.868C929.325 989.58 907.612 1044.41 879.384 1094.35C851.157 1143.2 822.93 1181.74 794.703 1209.97C766.476 1238.2 744.763 1252.31 729.563 1252.31C704.593 1252.31 679.08 1247.42 653.024 1237.65C591.142 1290.85 516.231 1317.45 428.293 1317.45C380.524 1317.45 333.298 1309.85 286.614 1294.65C237.76 1279.45 200.304 1257.19 174.248 1227.88C148.193 1198.57 135.165 1169.26 135.165 1139.94C135.165 1120.4 141.679 1104.12 154.707 1091.09C167.734 1078.06 185.648 1071.55 208.447 1071.55C242.102 1071.55 280.1 1085.12 322.441 1112.26L320.812 1126.92C275.215 1098.69 237.217 1084.57 206.818 1084.57C188.362 1084.57 173.706 1089.46 162.849 1099.23C153.078 1109 148.193 1122.03 148.193 1138.32C148.193 1164.37 160.678 1190.97 185.648 1218.11C210.618 1245.25 245.359 1265.88 289.871 1279.99C338.726 1295.19 386.495 1302.79 433.178 1302.79C513.517 1302.79 582.456 1279.45 639.996 1232.77C615.026 1223 588.97 1210.51 561.829 1195.31C535.773 1179.03 502.66 1157.86 462.491 1131.8C399.523 1091.63 348.497 1061.78 309.413 1042.23C271.415 1022.69 234.503 1012.92 198.676 1012.92C162.849 1012.92 131.908 1023.24 105.852 1043.86C79.796 1063.4 66.7681 1088.92 66.7681 1120.4C66.7681 1154.06 83.053 1187.71 115.623 1221.37L107.48 1226.25C69.4822 1191.51 50.4832 1150.8 50.4832 1104.12C50.4832 1074.8 58.6256 1047.66 74.9105 1022.69C92.2811 997.722 116.166 978.723 146.564 965.695C156.335 960.267 167.192 951.039 179.134 938.011C181.305 935.839 186.733 930.954 195.419 923.354C205.19 914.669 214.418 907.612 223.103 902.184C232.874 896.756 242.645 893.499 252.416 892.413H265.444C279.557 892.413 293.671 894.042 307.785 897.299C315.384 898.384 326.784 898.927 341.983 898.927C399.523 898.927 454.891 885.356 508.089 858.215C561.286 829.988 605.798 795.247 641.625 753.991C677.452 712.736 700.251 673.11 710.022 635.112C714.364 618.827 716.535 599.285 716.535 576.486C716.535 525.46 702.422 472.263 674.195 416.894C647.053 360.44 609.598 309.957 561.829 265.445C515.146 219.847 463.577 187.82 407.122 169.364C349.582 149.822 293.671 140.051 239.388 140.051C174.248 140.051 121.051 155.25 79.796 185.649C38.5409 214.961 17.9134 258.931 17.9134 317.556C17.9134 354.469 29.8556 382.153 53.7402 400.609C77.6247 419.065 115.623 432.636 167.734 441.321C219.846 448.921 300.185 455.978 408.751 462.492C452.177 464.663 484.204 472.806 504.832 486.919C525.459 499.947 538.487 516.232 543.916 535.774C550.43 555.316 554.772 581.914 556.943 615.57L561.829 661.168C565.086 685.052 559.658 712.194 545.544 742.592C532.516 771.905 512.431 795.789 485.29 814.246C470.091 825.102 455.977 830.53 442.949 830.53C433.178 830.53 428.293 827.816 428.293 822.388C428.293 814.788 439.692 807.732 462.491 801.218C490.718 793.618 511.346 780.047 524.374 760.505C537.402 739.878 543.916 722.507 543.916 708.394C543.916 639.997 471.719 603.628 327.326 599.285C321.898 599.285 303.442 599.285 271.958 599.285C241.559 598.199 210.075 594.942 177.505 589.514C144.936 584.086 116.708 575.943 92.8239 565.087C65.6824 553.144 43.4264 526.003 26.0558 483.662C8.68528 441.321 0 394.095 0 341.984C0 280.101 13.0279 223.647 39.0838 172.621C66.2252 120.509 104.223 79.7968 153.078 50.484C201.933 20.0855 257.301 4.88625 319.184 4.88625C371.296 4.88625 423.95 15.7428 477.147 37.456C561.829 72.1971 631.854 131.366 687.223 214.961C742.591 297.472 770.276 388.667 770.276 488.548C770.276 507.004 769.733 521.117 768.647 530.888L770.276 710.022C775.704 712.194 780.589 714.908 784.932 718.165C789.275 721.422 791.446 724.679 791.446 727.936C791.446 737.707 784.389 744.763 770.276 749.106V794.704L815.873 887.528L771.904 993.379C768.647 1037.89 757.248 1082.4 737.706 1126.92C749.648 1131.26 762.133 1133.43 775.161 1133.43C851.157 1133.43 907.612 1040.06 944.524 853.329L946.153 156.336C946.153 141.137 950.495 128.651 959.18 118.881C968.951 109.11 984.693 96.0817 1006.41 79.7968C1016.18 73.2828 1029.75 63.5118 1047.12 50.484C1090.55 16.8285 1126.91 0.000747601 1156.23 0.000747601C1175.77 0.000747601 1192.05 5.97186 1205.08 17.9141L1203.45 34.1991C1187.17 21.1711 1170.34 14.6572 1152.97 14.6572C1138.86 14.6572 1126.37 19.5426 1115.52 29.3136C1104.66 37.9989 1096.52 51.5696 1091.09 70.0258C1090 73.2828 1087.29 82.5109 1082.95 97.7101C1078.6 111.824 1076.43 131.908 1076.43 157.964L1073.17 916.84C1073.17 995.008 1074.8 1056.35 1078.06 1100.86C1082.4 1144.29 1090 1167.63 1100.86 1170.88L1107.37 1172.51C1118.23 1172.51 1130.17 1163.83 1143.2 1146.46C1159.48 1122.57 1172.51 1093.8 1182.28 1060.15C1192.05 1026.49 1196.94 992.837 1196.94 959.181C1196.94 899.47 1183.91 856.043 1157.86 828.902L1161.11 810.989ZM753.991 612.313C738.792 658.996 712.193 704.051 674.195 747.478C636.197 789.818 590.056 826.188 535.773 856.586C482.576 886.985 426.664 907.07 368.039 916.84C403.865 933.125 465.748 968.409 553.686 1022.69C619.912 1066.12 673.109 1097.6 713.278 1117.14L724.678 1122.03C744.22 1078.6 755.076 1031.38 757.248 980.352L716.535 887.528L755.619 799.589V747.478C749.105 746.392 743.677 744.221 739.334 740.964C736.077 737.707 734.449 733.364 734.449 727.936C734.449 724.679 736.077 721.422 739.334 718.165C743.677 714.908 748.562 712.736 753.991 711.651V612.313Z" fill="white"/>
</svg>
